<svg width="16" height="16" viewBox="0 0 16 16" xmlns="http://www.w3.org/2000/svg">
<path d="M12.1766 3.07168C10.7047 1.5998 8.30786 1.5998 6.83754 3.07168L2.75942 7.14668C2.73286 7.17324 2.71879 7.20918 2.71879 7.24668C2.71879 7.28418 2.73286 7.32012 2.75942 7.34668L3.33598 7.92324C3.36234 7.94948 3.39801 7.96421 3.4352 7.96421C3.47239 7.96421 3.50807 7.94948 3.53442 7.92324L7.61255 3.84824C8.11879 3.34199 8.79223 3.06387 9.50786 3.06387C10.2235 3.06387 10.8969 3.34199 11.4016 3.84824C11.9079 4.35449 12.186 5.02793 12.186 5.74199C12.186 6.45762 11.9079 7.12949 11.4016 7.63574L7.24536 11.7904L6.57192 12.4639C5.94223 13.0936 4.91879 13.0936 4.28911 12.4639C3.98442 12.1592 3.81723 11.7545 3.81723 11.3232C3.81723 10.892 3.98442 10.4873 4.28911 10.1826L8.41255 6.06074C8.51723 5.95762 8.65473 5.8998 8.80161 5.8998H8.80317C8.95005 5.8998 9.08598 5.95762 9.18911 6.06074C9.29379 6.16543 9.35005 6.30293 9.35005 6.4498C9.35005 6.59512 9.29223 6.73262 9.18911 6.83574L5.81879 10.2029C5.79223 10.2295 5.77817 10.2654 5.77817 10.3029C5.77817 10.3404 5.79223 10.3764 5.81879 10.4029L6.39536 10.9795C6.42171 11.0057 6.45739 11.0205 6.49458 11.0205C6.53177 11.0205 6.56744 11.0057 6.5938 10.9795L9.96254 7.61074C10.2735 7.2998 10.4438 6.8873 10.4438 6.44824C10.4438 6.00918 10.2719 5.59512 9.96254 5.28574C9.32036 4.64355 8.27661 4.64512 7.63442 5.28574L7.23442 5.6873L3.51254 9.40762C3.25994 9.65874 3.0597 9.95752 2.92344 10.2866C2.78719 10.6157 2.71763 10.9686 2.71879 11.3248C2.71879 12.0482 3.00161 12.7279 3.51254 13.2389C4.04223 13.767 4.73598 14.0311 5.42973 14.0311C6.12348 14.0311 6.81723 13.767 7.34536 13.2389L12.1766 8.41074C12.8875 7.69824 13.2813 6.7498 13.2813 5.74199C13.2829 4.73262 12.8891 3.78418 12.1766 3.07168Z"/>
</svg>
